<svg width="190" height="38" viewBox="0 0 190 38" fill="none" xmlns="http://www.w3.org/2000/svg">
<path d="M3.67088 10.6867L18.0697 2.37355L32.4685 10.6867V27.313L18.0697 35.6262L3.67088 27.313V10.6867Z" fill="#00C2FF" stroke="black" stroke-width="2.5"/>
<path d="M17.9999 10.8066V13.8066M17.9999 26.8066V23.8066" stroke="black" stroke-width="2.5" stroke-linecap="round"/>
<path d="M25.1234 14.7051L21.9999 16.5085M11.0968 22.8034L14.4999 20.8386" stroke="black" stroke-width="2.5" stroke-linecap="round"/>
<path d="M25.1234 22.8032L21.9999 20.9998M11.0968 14.7049L13.9999 16.381" stroke="black" stroke-width="2.5" stroke-linecap="round"/>
<circle cx="18.1342" cy="18.5364" r="4.09942" stroke="black" stroke-width="2.5" stroke-linecap="round"/>
<circle cx="12.8784" cy="9.74984" r="0.645346" fill="black"/>
<circle cx="12.8784" cy="28.0506" r="0.645346" fill="black"/>
<circle cx="23.5772" cy="9.74984" r="0.645346" fill="black"/>
<circle cx="28.6452" cy="18.7591" r="0.645346" fill="black"/>
<circle cx="7.52914" cy="18.7591" r="0.645346" fill="black"/>
<circle cx="23.5772" cy="28.0506" r="0.645346" fill="black"/>
<path d="M51.2815 25.3337C45.0899 25.3337 41.0764 22.369 41.0764 17.7707C41.0764 13.1119 44.9689 10.1068 50.9588 10.1068C56.4445 10.1068 60.1756 12.4262 60.4176 15.8144H55.3352C55.0731 14.927 53.3991 14.1203 50.9991 14.1203C47.8932 14.1203 46.0579 15.653 46.0579 17.7707C46.0579 20.0497 48.1151 21.3203 51.5638 21.3203C53.2176 21.3203 55.0529 21.0984 56.6058 20.4934V19.7875H50.5957V16.843H60.4176V23.0951C58.1991 24.5472 54.6294 25.3337 51.2815 25.3337Z" fill="black"/>
<path d="M72.5722 25.3337C66.3806 25.3337 62.3671 22.369 62.3671 17.7707C62.3671 13.1119 66.2596 10.1068 72.2495 10.1068C77.7352 10.1068 81.4663 12.4262 81.7083 15.8144H76.6259C76.3638 14.927 74.6898 14.1203 72.2898 14.1203C69.1839 14.1203 67.3486 15.653 67.3486 17.7707C67.3486 20.0497 69.4058 21.3203 72.8545 21.3203C74.5083 21.3203 76.3436 21.0984 77.8965 20.4934V19.7875H71.8864V16.843H81.7083V23.0951C79.4898 24.5472 75.9201 25.3337 72.5722 25.3337Z" fill="black"/>
<path d="M83.8797 24.9304V10.4497H95.2141C98.8242 10.4497 101.023 12.4665 101.023 15.8951C101.023 19.3035 98.8242 21.3404 95.2141 21.3404H88.6192V24.9304H83.8797ZM88.6192 17.3673H94.0847C95.436 17.3673 96.0814 17.085 96.0814 15.8951C96.0814 14.7051 95.436 14.443 94.0847 14.443H88.6192V17.3673Z" fill="black"/>
<path d="M117.896 24.9304L110.858 10.4497H115.9L121.285 21.7236L126.669 10.4497H131.732L124.653 24.9304H117.896Z" fill="black"/>
<path d="M137.004 25.3539C133.858 25.3539 131.417 24.1236 131.417 21.3001C131.417 18.0732 134.826 17.1455 138.295 17.1455C140.271 17.1455 142.147 17.3875 143.8 17.811C143.74 16.2379 142.57 15.7135 140.13 15.7135C137.911 15.7135 135.834 16.0766 132.97 16.7421L132.405 13.4144C135.088 12.8295 137.972 12.406 141.017 12.406C146.12 12.406 148.5 14.1203 148.5 18.6177V24.9304H143.8V23.3371C141.663 24.6883 138.98 25.3539 137.004 25.3539ZM136.298 21.0581C136.298 21.764 136.984 22.248 138.577 22.248C139.989 22.248 142.368 21.7438 143.8 21.2598V20.2514C142.005 19.969 140.453 19.7472 138.94 19.7472C136.984 19.7472 136.298 20.1304 136.298 21.0581Z" fill="black"/>
<path d="M168.473 12.8093V24.9304H163.753V22.2077C162.241 24.0631 160.163 25.3337 156.816 25.3337C153.206 25.3337 150.745 23.7606 150.745 19.3035V12.8093H155.464V17.5287C155.464 20.211 156.372 21.4614 159.175 21.4614C162.12 21.4614 163.753 20.1707 163.753 17.5892V12.8093H168.473Z" fill="black"/>
<path d="M170.835 24.9304V8.7959H175.494V24.9304H170.835Z" fill="black"/>
<path d="M184.972 25.3337C181.483 25.3337 179.567 24.0026 179.567 21.3001V16.2177H177.167V12.8093H179.567V10.5909L184.205 9.38077V12.8093H189.126V16.2177H184.205V19.606C184.205 20.7152 184.71 21.5018 186.061 21.5018C187.17 21.5018 187.735 21.4009 189.126 21.0984V24.8093C187.997 25.0917 186.545 25.3337 184.972 25.3337Z" fill="black"/>
<path d="M51.2815 25.3337C45.0899 25.3337 41.0764 22.369 41.0764 17.7707C41.0764 13.1119 44.9689 10.1068 50.9588 10.1068C56.4445 10.1068 60.1756 12.4262 60.4176 15.8144H55.3352C55.0731 14.927 53.3991 14.1203 50.9991 14.1203C47.8932 14.1203 46.0579 15.653 46.0579 17.7707C46.0579 20.0497 48.1151 21.3203 51.5638 21.3203C53.2176 21.3203 55.0529 21.0984 56.6058 20.4934V19.7875H50.5957V16.843H60.4176V23.0951C58.1991 24.5472 54.6294 25.3337 51.2815 25.3337Z" stroke="black" stroke-width="0.35"/>
<path d="M72.5722 25.3337C66.3806 25.3337 62.3671 22.369 62.3671 17.7707C62.3671 13.1119 66.2596 10.1068 72.2495 10.1068C77.7352 10.1068 81.4663 12.4262 81.7083 15.8144H76.6259C76.3638 14.927 74.6898 14.1203 72.2898 14.1203C69.1839 14.1203 67.3486 15.653 67.3486 17.7707C67.3486 20.0497 69.4058 21.3203 72.8545 21.3203C74.5083 21.3203 76.3436 21.0984 77.8965 20.4934V19.7875H71.8864V16.843H81.7083V23.0951C79.4898 24.5472 75.9201 25.3337 72.5722 25.3337Z" stroke="black" stroke-width="0.35"/>
<path d="M83.8797 24.9304V10.4497H95.2141C98.8242 10.4497 101.023 12.4665 101.023 15.8951C101.023 19.3035 98.8242 21.3404 95.2141 21.3404H88.6192V24.9304H83.8797ZM88.6192 17.3673H94.0847C95.436 17.3673 96.0814 17.085 96.0814 15.8951C96.0814 14.7051 95.436 14.443 94.0847 14.443H88.6192V17.3673Z" stroke="black" stroke-width="0.35"/>
<path d="M117.896 24.9304L110.858 10.4497H115.9L121.285 21.7236L126.669 10.4497H131.732L124.653 24.9304H117.896Z" stroke="black" stroke-width="0.35"/>
<path d="M137.004 25.3539C133.858 25.3539 131.417 24.1236 131.417 21.3001C131.417 18.0732 134.826 17.1455 138.295 17.1455C140.271 17.1455 142.147 17.3875 143.8 17.811C143.74 16.2379 142.57 15.7135 140.13 15.7135C137.911 15.7135 135.834 16.0766 132.97 16.7421L132.405 13.4144C135.088 12.8295 137.972 12.406 141.017 12.406C146.12 12.406 148.5 14.1203 148.5 18.6177V24.9304H143.8V23.3371C141.663 24.6883 138.98 25.3539 137.004 25.3539ZM136.298 21.0581C136.298 21.764 136.984 22.248 138.577 22.248C139.989 22.248 142.368 21.7438 143.8 21.2598V20.2514C142.005 19.969 140.453 19.7472 138.94 19.7472C136.984 19.7472 136.298 20.1304 136.298 21.0581Z" stroke="black" stroke-width="0.35"/>
<path d="M168.473 12.8093V24.9304H163.753V22.2077C162.241 24.0631 160.163 25.3337 156.816 25.3337C153.206 25.3337 150.745 23.7606 150.745 19.3035V12.8093H155.464V17.5287C155.464 20.211 156.372 21.4614 159.175 21.4614C162.12 21.4614 163.753 20.1707 163.753 17.5892V12.8093H168.473Z" stroke="black" stroke-width="0.35"/>
<path d="M170.835 24.9304V8.7959H175.494V24.9304H170.835Z" stroke="black" stroke-width="0.35"/>
<path d="M184.972 25.3337C181.483 25.3337 179.567 24.0026 179.567 21.3001V16.2177H177.167V12.8093H179.567V10.5909L184.205 9.38077V12.8093H189.126V16.2177H184.205V19.606C184.205 20.7152 184.71 21.5018 186.061 21.5018C187.17 21.5018 187.735 21.4009 189.126 21.0984V24.8093C187.997 25.0917 186.545 25.3337 184.972 25.3337Z" stroke="black" stroke-width="0.35"/>
<path d="M1 16.9302C1.4 16.9302 3.66667 16.9302 5.5 16.9302" stroke="black" stroke-width="2"/>
<path d="M1 20.9302C1.4 20.9302 3.66667 20.9302 5.5 20.9302" stroke="black" stroke-width="2"/>
</svg>
