<?xml version="1.0" encoding="utf-8"?>
<!-- Generator: Adobe Illustrator 24.0.2, SVG Export Plug-In . SVG Version: 6.00 Build 0)  -->
<svg version="1.1" id="Capa_1" xmlns="http://www.w3.org/2000/svg" xmlns:xlink="http://www.w3.org/1999/xlink" x="0px" y="0px"
	 viewBox="0 0 40 40" style="enable-background:new 0 0 40 40;" xml:space="preserve">
<style type="text/css">
	.st0{fill:#FFFFFF;}
</style>
<g>
	<path class="st0" d="M20,0L2.7,10v20L20,40l17.3-10V10L20,0z M34.8,28.6L20,37.1L5.2,28.6V11.4L20,2.9l14.8,8.6V28.6z"/>
	<path class="st0" d="M18.7,10.9v2.8c-1.2,0.3-2.3,1-3.1,1.9l-2.6-1.5c-0.6-0.3-1.4-0.1-1.7,0.5c-0.3,0.6-0.1,1.4,0.5,1.7l2.7,1.6
		c-0.1,0.5-0.2,1-0.2,1.6c0,0.7,0.1,1.4,0.4,2l-2.8,1.6c-0.6,0.3-0.8,1.1-0.5,1.7c0.2,0.4,0.7,0.6,1.1,0.6c0.2,0,0.4-0.1,0.6-0.2
		l2.9-1.7c0.8,0.8,1.8,1.4,2.9,1.6c0,0,0,0.1,0,0.1v3.3c0,0.7,0.6,1.3,1.3,1.3s1.3-0.6,1.3-1.3v-3.3c0,0,0,0,0,0
		c1.2-0.2,2.3-0.8,3.1-1.7l2.9,1.7c0.2,0.1,0.4,0.2,0.6,0.2c0.4,0,0.9-0.2,1.1-0.6c0.3-0.6,0.1-1.4-0.5-1.7l-2.8-1.6
		c0.2-0.6,0.4-1.3,0.4-2c0-0.6-0.1-1.1-0.2-1.6l2.7-1.5c0.6-0.3,0.8-1.1,0.5-1.7c-0.3-0.6-1.1-0.8-1.7-0.5l-2.6,1.5
		c-0.9-1-2.1-1.7-3.4-2v-2.7c0-0.7-0.6-1.3-1.3-1.3S18.7,10.2,18.7,10.9z M23.5,19.5c0,1.9-1.5,3.4-3.4,3.4c-1.9,0-3.4-1.5-3.4-3.4
		s1.5-3.4,3.4-3.4C22,16.1,23.5,17.6,23.5,19.5z"/>
	<circle class="st0" cx="14.3" cy="9.8" r="0.7"/>
	<path class="st0" d="M14.3,29.3c-0.4,0-0.7,0.3-0.7,0.7c0,0.4,0.3,0.7,0.7,0.7c0.4,0,0.7-0.3,0.7-0.7C15,29.6,14.6,29.3,14.3,29.3z
		"/>
	<circle class="st0" cx="26.1" cy="9.8" r="0.7"/>
	<path class="st0" d="M31.7,20.4c0.4,0,0.7-0.3,0.7-0.7c0-0.4-0.3-0.7-0.7-0.7c-0.4,0-0.7,0.3-0.7,0.7C31,20.1,31.3,20.4,31.7,20.4z
		"/>
	<path class="st0" d="M8.3,19c-0.4,0-0.7,0.3-0.7,0.7c0,0.4,0.3,0.7,0.7,0.7c0.4,0,0.7-0.3,0.7-0.7C9,19.3,8.7,19,8.3,19z"/>
	<path class="st0" d="M26.1,29.3c-0.4,0-0.7,0.3-0.7,0.7c0,0.4,0.3,0.7,0.7,0.7s0.7-0.3,0.7-0.7C26.8,29.6,26.5,29.3,26.1,29.3z"/>
</g>
</svg>
